# xmcd
#
# Track frame offsets:
#	150
#	2317
#	13686
#	25219
#	37189
#	48496
#	49821
#	63733
#	75728
#	77880
#	90846
#	105843
#	107326
#	118621
#	128833
#	145154
#	147458
#	170811
#	188907
#
# Disc length: 3010 seconds
#
# Revision: 0
# Processed by: cddbd v1.5.2PL0 Copyright (c) Steve Scherf et al.
# Submitted via: EasyCDDAExtractor 11.9.9.666
#
DISCID=f70bc013
DTITLE=Pieni Suuri Seikkailu - Taivaan Isän taskussa
DYEAR=2004
DGENRE=Children
TTITLE0=Tervetuloa PSS öörlinesin matkalle
TTITLE1=Bätmänni vai hämähäkkimies
TTITLE2=Antti elefantti
TTITLE3=Kutitellaankos?
TTITLE4=Kapteenin jumppalaulu
TTITLE5=Kapteenin tiedotuksia
TTITLE6=Pikku cowboy IV
TTITLE7=Taivaan Isän taskussa (Kymppilaulu 2004)
TTITLE8=Perämiehellä on asiaa
TTITLE9=Orava ja karhu
TTITLE10=Koulupäivä
TTITLE11=Kapteenilla on asiaa
TTITLE12=Aakkoslaulu
TTITLE13=Kaikilla kaveri
TTITLE14=Matkalaulu
TTITLE15=Pss Airlines
TTITLE16=Voimistelu hommaa meikäläisen
TTITLE17=Kuka kaiken laittoi toimimaan
TTITLE18=Kapteenin kiitokset
EXTD=
EXTT0=
EXTT1=
EXTT2=
EXTT3=
EXTT4=
EXTT5=
EXTT6=
EXTT7=
EXTT8=
EXTT9=
EXTT10=
EXTT11=
EXTT12=
EXTT13=
EXTT14=
EXTT15=
EXTT16=
EXTT17=
EXTT18=
PLAYORDER=
